<?xml version="1.0" standalone="no"?>
<!DOCTYPE svg PUBLIC "-//W3C//DTD SVG 20010904//EN"
 "http://www.w3.org/TR/2001/REC-SVG-20010904/DTD/svg10.dtd">
<svg version="1.0" xmlns="http://www.w3.org/2000/svg"
 width="194.000000pt" height="259.000000pt" viewBox="0 0 194.000000 259.000000"
 preserveAspectRatio="xMidYMid meet">

<g transform="translate(0.000000,259.000000) scale(0.100000,-0.100000)"
fill="#000000" stroke="none">
<path d="M930 2298 c-16 -29 -30 -65 -30 -80 0 -21 -5 -28 -19 -28 -18 0 -18
-3 6 -45 22 -41 77 -84 90 -72 2 3 -4 8 -15 11 -18 6 -72 66 -72 80 0 3 6 3
14 0 9 -4 16 4 20 23 4 15 16 39 27 53 19 25 20 25 34 5 8 -10 21 -34 27 -52
8 -21 17 -32 26 -28 15 6 10 -5 -26 -54 -22 -30 -22 -32 -4 -22 11 6 31 31 45
56 23 41 24 45 8 45 -13 0 -20 10 -24 36 -6 35 -55 124 -69 124 -4 0 -21 -24
-38 -52z"/>
<path d="M1559 650 c-47 -14 -71 -31 -84 -63 -17 -40 -3 -80 33 -96 81 -38 97
-48 100 -65 6 -28 -25 -46 -78 -46 -78 0 -99 -44 -25 -56 87 -13 156 20 171
82 12 47 -7 77 -66 107 -93 47 -100 87 -14 87 42 0 84 25 67 40 -13 12 -76 19
-104 10z"/>
<path d="M260 558 c1 -132 12 -177 50 -211 30 -27 38 -29 91 -25 104 8 129 52
129 226 0 101 0 102 -24 102 -47 0 -56 -22 -56 -133 0 -56 -4 -107 -8 -113
-15 -23 -51 -35 -72 -24 -31 17 -40 51 -40 155 0 83 -2 96 -19 105 -46 24 -51
16 -51 -82z"/>
<path d="M590 486 c0 -153 1 -165 18 -159 38 14 42 24 42 121 l0 95 56 -94
c61 -101 85 -129 115 -129 18 0 19 10 19 165 0 173 -1 176 -44 159 -13 -5 -16
-24 -16 -107 0 -69 -3 -98 -10 -91 -6 6 -36 53 -68 105 -47 78 -62 95 -85 97
l-27 3 0 -165z"/>
<path d="M900 486 l0 -165 23 8 c20 8 22 16 27 111 6 117 1 118 79 -13 51 -85
73 -107 105 -107 14 0 16 22 16 165 0 173 -1 176 -44 159 -13 -5 -16 -24 -16
-107 0 -69 -3 -98 -10 -91 -6 6 -36 53 -68 105 -47 78 -62 95 -85 97 l-27 3 0
-165z"/>
<path d="M1210 485 l0 -165 73 0 c77 0 120 15 125 43 3 15 -5 17 -62 17 l-66
0 0 45 0 45 38 0 c39 0 62 14 62 37 0 9 -16 13 -51 13 l-50 0 3 38 c3 37 3 37
56 42 48 5 71 19 72 43 0 4 -45 7 -100 7 l-100 0 0 -165z"/>
<path d="M446 255 c-9 -26 -7 -32 5 -12 6 10 9 21 6 23 -2 3 -7 -2 -11 -11z"/>
<path d="M478 263 c6 -2 18 -2 25 0 6 3 1 5 -13 5 -14 0 -19 -2 -12 -5z"/>
<path d="M543 264 c21 -7 22 -21 2 -27 -11 -4 -10 -4 2 -3 25 2 23 30 -2 33
-16 1 -16 1 -2 -3z"/>
<path d="M595 259 c-4 -6 -4 -13 -1 -16 3 -4 6 -1 6 6 0 8 6 11 16 7 8 -3 12
-2 9 4 -8 13 -22 13 -30 -1z"/>
<path d="M679 238 c5 -30 6 -31 9 -8 2 14 9 28 16 32 7 5 3 8 -10 8 -18 0 -20
-5 -15 -32z"/>
<path d="M727 263 c-11 -10 -8 -25 3 -18 6 3 10 -1 10 -9 0 -8 4 -17 10 -21 5
-3 5 7 -1 25 -12 33 -12 33 -22 23z"/>
<path d="M775 259 c-4 -6 -4 -13 -1 -16 3 -4 6 -1 6 6 0 8 6 11 16 7 8 -3 12
-2 9 4 -8 13 -22 13 -30 -1z"/>
<path d="M850 241 c0 -17 2 -31 4 -31 8 0 13 51 5 56 -5 3 -9 -9 -9 -25z"/>
<path d="M891 252 c-1 -16 -5 -21 -13 -16 -8 5 -7 0 2 -11 13 -16 15 -16 18
-2 2 10 1 25 -1 35 -3 12 -5 11 -6 -6z"/>
<path d="M917 263 c-4 -3 -7 -18 -7 -32 0 -19 3 -22 9 -12 5 8 7 20 4 27 -2 7
4 14 14 17 14 4 14 5 2 6 -9 0 -19 -2 -22 -6z"/>
<path d="M990 266 c0 -2 7 -7 16 -10 8 -3 12 -2 9 4 -6 10 -25 14 -25 6z"/>
<path d="M1048 263 c6 -2 18 -2 25 0 6 3 1 5 -13 5 -14 0 -19 -2 -12 -5z"/>
<path d="M1097 264 c-4 -4 -7 -19 -7 -33 0 -14 4 -21 8 -15 4 6 15 14 25 17
10 4 17 13 15 20 -5 14 -31 21 -41 11z m33 -14 c0 -5 -7 -10 -15 -10 -8 0 -15
5 -15 10 0 6 7 10 15 10 8 0 15 -4 15 -10z"/>
<path d="M1206 261 c-4 -5 3 -7 14 -4 23 6 26 13 6 13 -8 0 -17 -4 -20 -9z"/>
<path d="M1261 238 c2 -30 2 -30 6 -6 2 15 12 29 21 31 12 3 10 5 -5 6 -20 1
-23 -4 -22 -31z"/>
<path d="M1463 264 c9 -3 17 -10 17 -15 0 -5 -8 -9 -17 -10 -14 0 -15 -2 -3
-6 8 -3 18 -11 22 -17 4 -6 6 3 5 19 -2 21 -8 30 -22 32 -16 1 -16 1 -2 -3z"/>
<path d="M1520 261 c0 -5 5 -13 10 -16 6 -3 10 -2 10 4 0 5 -4 13 -10 16 -5 3
-10 2 -10 -4z"/>
<path d="M1637 263 c-3 -5 5 -8 18 -8 13 0 21 3 18 8 -2 4 -10 7 -18 7 -8 0
-16 -3 -18 -7z"/>
<path d="M260 241 c0 -11 4 -22 9 -25 4 -3 6 6 3 19 -5 30 -12 33 -12 6z"/>
<path d="M302 235 c0 -16 2 -22 5 -12 2 9 2 23 0 30 -3 6 -5 -1 -5 -18z"/>
<path d="M616 227 c3 -10 9 -15 12 -12 3 3 0 11 -7 18 -10 9 -11 8 -5 -6z"/>
<path d="M1220 236 c0 -2 7 -7 16 -10 8 -3 12 -2 9 4 -6 10 -25 14 -25 6z"/>
<path d="M1386 223 c-6 -14 -5 -15 5 -6 7 7 10 15 7 18 -3 3 -9 -2 -12 -12z"/>
<path d="M1506 223 c-6 -14 -5 -15 5 -6 7 7 10 15 7 18 -3 3 -9 -2 -12 -12z"/>
<path d="M1666 225 c4 -8 8 -15 10 -15 2 0 4 7 4 15 0 8 -4 15 -10 15 -5 0 -7
-7 -4 -15z"/>
<path d="M355 220 c3 -5 8 -10 11 -10 2 0 4 5 4 10 0 6 -5 10 -11 10 -5 0 -7
-4 -4 -10z"/>
<path d="M420 220 c0 -5 5 -10 11 -10 5 0 7 5 4 10 -3 6 -8 10 -11 10 -2 0 -4
-4 -4 -10z"/>
<path d="M1595 220 c3 -5 8 -10 11 -10 2 0 4 5 4 10 0 6 -5 10 -11 10 -5 0 -7
-4 -4 -10z"/>
</g>
</svg>
