<svg width="26" height="26" viewBox="0 0 26 26" fill="none" xmlns="http://www.w3.org/2000/svg">
<path fill-rule="evenodd" clip-rule="evenodd" d="M4.0271 12.5749C4.0271 17.2381 7.41252 21.1154 11.8396 21.9013L11.8919 21.8592C11.8745 21.8558 11.8571 21.8524 11.8397 21.8489V15.1947H9.49595V12.5749H11.8397V10.4791C11.8397 8.12133 13.3501 6.81145 15.4855 6.81145C16.1626 6.81145 16.8918 6.91624 17.5689 7.02103V9.43121H16.371C15.2251 9.43121 14.9647 10.0076 14.9647 10.7411V12.5749H17.4647L17.048 15.1947H14.9647V21.8489C14.9473 21.8524 14.9298 21.8558 14.9124 21.8592L14.9646 21.9013C19.3917 21.1154 22.7771 17.2381 22.7771 12.5749C22.7771 7.38781 18.5583 3.1438 13.4021 3.1438C8.24585 3.1438 4.0271 7.38781 4.0271 12.5749Z" fill="white"/>
</svg>
