<svg width="26" height="26" viewBox="0 0 26 26" fill="none" xmlns="http://www.w3.org/2000/svg">
<path d="M13.4753 3.42944C11.0064 3.42944 10.6966 3.4403 9.72693 3.4847C8.75916 3.52928 8.09857 3.68342 7.52056 3.90957C6.92266 4.14316 6.41548 4.45563 5.91019 4.96415C5.40452 5.47248 5.09393 5.98271 4.86098 6.58402C4.63561 7.1657 4.4822 7.83045 4.43864 8.80367C4.39527 9.77917 4.38391 10.0911 4.38391 12.5748C4.38391 15.0585 4.3949 15.3693 4.43883 16.3448C4.48334 17.3184 4.63656 17.9829 4.86117 18.5644C5.09355 19.1659 5.40415 19.6761 5.90962 20.1845C6.41472 20.6932 6.9219 21.0064 7.51942 21.24C8.09781 21.4662 8.75859 21.6203 9.72617 21.6649C10.6958 21.7093 11.0055 21.7201 13.4742 21.7201C15.9432 21.7201 16.2521 21.7093 17.2218 21.6649C18.1896 21.6203 18.8509 21.4662 19.4293 21.24C20.027 21.0064 20.5334 20.6932 21.0385 20.1845C21.5442 19.6761 21.8548 19.1659 22.0877 18.5646C22.3112 17.9829 22.4646 17.3182 22.5101 16.345C22.5536 15.3695 22.565 15.0585 22.565 12.5748C22.565 10.0911 22.5536 9.77936 22.5101 8.80386C22.4646 7.83026 22.3112 7.1657 22.0877 6.58421C21.8548 5.98271 21.5442 5.47248 21.0385 4.96415C20.5329 4.45544 20.0272 4.14297 19.4287 3.90957C18.8492 3.68342 18.1882 3.52928 17.2205 3.4847C16.2508 3.4403 15.9421 3.42944 13.4725 3.42944H13.4753ZM12.6598 5.07751C12.9018 5.07713 13.1719 5.07751 13.4753 5.07751C15.9025 5.07751 16.1902 5.08628 17.1487 5.1301C18.035 5.17087 18.5161 5.31986 18.8365 5.44504C19.2607 5.6108 19.5632 5.80895 19.8812 6.12903C20.1993 6.44912 20.3963 6.75397 20.5615 7.18075C20.6859 7.50274 20.8342 7.98668 20.8745 8.87835C20.9181 9.84243 20.9275 10.132 20.9275 12.5727C20.9275 15.0134 20.9181 15.303 20.8745 16.267C20.834 17.1587 20.6859 17.6426 20.5615 17.9646C20.3967 18.3914 20.1993 18.6953 19.8812 19.0152C19.563 19.3353 19.2609 19.5334 18.8365 19.6992C18.5164 19.825 18.035 19.9736 17.1487 20.0143C16.1904 20.0582 15.9025 20.0677 13.4753 20.0677C11.0479 20.0677 10.7602 20.0582 9.80193 20.0143C8.91559 19.9732 8.43455 19.8242 8.11391 19.699C7.68968 19.5333 7.38666 19.3351 7.06849 19.015C6.75032 18.6949 6.55335 18.3908 6.38821 17.9639C6.26378 17.6419 6.11549 17.1579 6.07515 16.2663C6.03159 15.3022 6.02288 15.0126 6.02288 12.5704C6.02288 10.1282 6.03159 9.84014 6.07515 8.87607C6.11568 7.9844 6.26378 7.50046 6.38821 7.17808C6.55297 6.7513 6.75032 6.44645 7.06849 6.12637C7.38666 5.80628 7.68968 5.60813 8.11391 5.44199C8.43436 5.31624 8.91559 5.16763 9.80193 5.12667C10.6405 5.08856 10.9655 5.07713 12.6598 5.07522V5.07751ZM18.3278 6.59602C17.7256 6.59602 17.2369 7.08701 17.2369 7.69308C17.2369 8.29896 17.7256 8.79052 18.3278 8.79052C18.9301 8.79052 19.4187 8.29896 19.4187 7.69308C19.4187 7.0872 18.9301 6.59564 18.3278 6.59564V6.59602ZM13.4753 7.87827C10.8972 7.87827 8.80688 9.98113 8.80688 12.5748C8.80688 15.1684 10.8972 17.2704 13.4753 17.2704C16.0534 17.2704 18.143 15.1684 18.143 12.5748C18.143 9.98113 16.0533 7.87827 13.4751 7.87827H13.4753ZM13.4753 9.52634C15.1487 9.52634 16.5055 10.8911 16.5055 12.5748C16.5055 14.2583 15.1487 15.6232 13.4753 15.6232C11.8017 15.6232 10.4451 14.2583 10.4451 12.5748C10.4451 10.8911 11.8017 9.52634 13.4753 9.52634Z" fill="white"/>
</svg>
