<svg width="26" height="26" viewBox="0 0 26 26" fill="none" xmlns="http://www.w3.org/2000/svg">
<path fill-rule="evenodd" clip-rule="evenodd" d="M21.5344 8.47627C21.5415 8.65953 21.5438 8.84272 21.5438 9.02599C21.5438 14.5822 17.6586 20.9965 10.5538 20.9965C8.37131 20.9965 6.34194 20.2967 4.63208 19.1055C4.93433 19.1389 5.24129 19.1639 5.55296 19.1639C7.36252 19.1639 9.02919 18.489 10.3512 17.3561C8.661 17.3311 7.23377 16.1066 6.74154 14.4406C6.97784 14.4906 7.22119 14.5156 7.47006 14.5156C7.82098 14.5156 8.16169 14.4657 8.48828 14.3657C6.71954 13.9825 5.38731 12.2832 5.38731 10.2424C5.38731 10.2174 5.38731 10.209 5.38731 10.1923C5.90859 10.5005 6.50522 10.692 7.13877 10.717C6.10092 9.95899 5.4187 8.66785 5.4187 7.21007C5.4187 6.4437 5.60868 5.71895 5.94311 5.09419C7.84767 7.64321 10.6951 9.31759 13.9052 9.49252C13.8393 9.18431 13.8055 8.85951 13.8055 8.53464C13.8055 6.21053 15.535 4.32788 17.6687 4.32788C18.7796 4.32788 19.7829 4.83609 20.4871 5.65245C21.3687 5.46918 22.1946 5.11934 22.942 4.63619C22.6523 5.61915 22.0407 6.44366 21.2415 6.96013C22.0235 6.86017 22.7693 6.63543 23.4609 6.30222C22.942 7.14356 22.2888 7.88483 21.5344 8.47627Z" fill="white"/>
</svg>
