<svg width="26" height="26" viewBox="0 0 26 26" fill="none" xmlns="http://www.w3.org/2000/svg">
<path fill-rule="evenodd" clip-rule="evenodd" d="M13.3672 3.10023C15.6889 3.21501 17.8522 4.17814 19.5046 5.8415C21.2671 7.61566 22.2372 9.97401 22.2363 12.482C22.2342 17.6575 18.046 21.8685 12.901 21.8685C10.9662 21.8685 9.42875 21.2705 8.43599 20.726L3.48718 22.0313L4.8116 17.1672C3.99466 15.7437 3.56478 14.129 3.56546 12.4745C3.56752 7.29921 7.75535 3.08862 12.9009 3.08862L13.3672 3.10023ZM8.66526 19.0267L8.94863 19.1957C10.1399 19.9066 11.5055 20.2827 12.8978 20.2832H12.901C17.1776 20.2832 20.6583 16.7833 20.66 12.4815C20.6609 10.3968 19.8546 8.43668 18.3896 6.96203C16.9246 5.48729 14.9765 4.67467 12.9041 4.67399C8.62412 4.67399 5.14334 8.17356 5.14164 12.4751C5.14105 13.9493 5.55125 15.385 6.32796 16.6271L6.51244 16.9223L5.7286 19.8012L8.66526 19.0267ZM17.604 14.7141C17.5457 14.6162 17.3903 14.5575 17.157 14.4401C16.9237 14.3227 15.7769 13.7553 15.5631 13.677C15.3493 13.5988 15.1938 13.5597 15.0383 13.7944C14.8828 14.0292 14.4358 14.5575 14.2997 14.7141C14.1637 14.8706 14.0276 14.8902 13.7944 14.7728C13.5611 14.6554 12.8095 14.4077 11.9186 13.6087C11.2251 12.9867 10.757 12.2187 10.6209 11.9839C10.4849 11.7492 10.6064 11.6222 10.7232 11.5053C10.8281 11.4002 10.9565 11.2313 11.0731 11.0944C11.1897 10.9575 11.2286 10.8596 11.3064 10.7031C11.3841 10.5465 11.3452 10.4096 11.2869 10.2922C11.2286 10.1748 10.7621 9.02032 10.5677 8.5507C10.3784 8.09341 10.1861 8.15532 10.0429 8.14809C9.90699 8.14132 9.75134 8.13983 9.59586 8.13983C9.44034 8.13983 9.18764 8.19849 8.97382 8.43334C8.76001 8.6681 8.15742 9.23558 8.15742 10.3899C8.15742 11.5444 8.99327 12.6596 9.1099 12.8162C9.22653 12.9728 10.7547 15.3416 13.0946 16.3576C13.6511 16.5993 14.0856 16.7436 14.4244 16.8517C14.9832 17.0302 15.4916 17.005 15.8936 16.9446C16.3417 16.8773 17.2736 16.3772 17.468 15.8294C17.6624 15.2815 17.6624 14.8119 17.604 14.7141Z" fill="#3D3A4B"/>
</svg>
