<svg width="26" height="26" viewBox="0 0 26 26" fill="none" xmlns="http://www.w3.org/2000/svg">
<path fill-rule="evenodd" clip-rule="evenodd" d="M21.6193 5.36657C22.5228 5.61128 23.2352 6.32794 23.4785 7.23687C23.9303 8.89741 23.9129 12.3583 23.9129 12.3583C23.9129 12.3583 23.9129 15.8018 23.4785 17.4623C23.2352 18.3712 22.5228 19.0879 21.6193 19.3326C19.9687 19.7696 13.366 19.7696 13.366 19.7696C13.366 19.7696 6.78079 19.7696 5.11276 19.3151C4.20924 19.0704 3.49685 18.3538 3.2536 17.4448C2.81921 15.8018 2.81921 12.3408 2.81921 12.3408C2.81921 12.3408 2.81921 8.89741 3.2536 7.23687C3.49685 6.32794 4.22662 5.59381 5.11276 5.34909C6.76342 4.91211 13.366 4.91211 13.366 4.91211C13.366 4.91211 19.9687 4.91211 21.6193 5.36657ZM16.7541 12.2195L11.2635 15.4007V9.03824L16.7541 12.2195Z" fill="#3D3A4B"/>
</svg>
