<svg width="26" height="26" viewBox="0 0 26 26" fill="none" xmlns="http://www.w3.org/2000/svg">
<path fill-rule="evenodd" clip-rule="evenodd" d="M21.6195 5.36657C22.523 5.61128 23.2354 6.32794 23.4786 7.23687C23.9304 8.89741 23.913 12.3583 23.913 12.3583C23.913 12.3583 23.913 15.8018 23.4786 17.4623C23.2354 18.3712 22.523 19.0879 21.6195 19.3326C19.9688 19.7696 13.3662 19.7696 13.3662 19.7696C13.3662 19.7696 6.78091 19.7696 5.11288 19.3151C4.20936 19.0704 3.49697 18.3538 3.25372 17.4448C2.81934 15.8018 2.81934 12.3408 2.81934 12.3408C2.81934 12.3408 2.81934 8.89741 3.25372 7.23687C3.49697 6.32794 4.22674 5.59381 5.11288 5.34909C6.76354 4.91211 13.3662 4.91211 13.3662 4.91211C13.3662 4.91211 19.9688 4.91211 21.6195 5.36657ZM16.7543 12.2194L11.2637 15.4007V9.03817L16.7543 12.2194Z" fill="white"/>
</svg>
